PathFileType	4	(X/Y/Z)	./resultDataOpenSim/trcMotMarkerGrf/sub09/qtm-02-07.trc
DataRate	CameraRate	NumFrames	NumMarkers	Units	OrigDataRate	OrigDataStartFrame	OrigNumFrames
250.000000	250.000000	8	24	m	250.000000	304	485
Frame#	Time	L.Toe.Tip			R.Toe.Tip			L.Ankle.Lat			R.Ankle.Lat			L.Ankle.Med			R.Ankle.Med			L.Heel			R.Heel			L.Knee.Lat			R.Knee.Lat			L.Knee.Med			R.Knee.Med			L.Thigh.Upper			R.Thigh.Upper			L.ASIS			R.ASIS			V.Sacral			L.Acromium			R.Acromium			C7			L.Elbow			R.Elbow			L.Wrist.Lat			R.Wrist.Lat
		X1	Y1	Z1	X2	Y2	Z2	X3	Y3	Z3	X4	Y4	Z4	X5	Y5	Z5	X6	Y6	Z6	X7	Y7	Z7	X8	Y8	Z8	X9	Y9	Z9	X10	Y10	Z10	X11	Y11	Z11	X12	Y12	Z12	X13	Y13	Z13	X14	Y14	Z14	X15	Y15	Z15	X16	Y16	Z16	X17	Y17	Z17	X18	Y18	Z18	X19	Y19	Z19	X20	Y20	Z20	X21	Y21	Z21	X22	Y22	Z22	X23	Y23	Z23	X24	Y24	Z24

304	1.212	0.19020712	0.020498859	-0.0049568659	1.0412194	0.043355001	0.071264761	0.12085191	0.15263702	-0.073482597	0.89351052	0.051962937	0.1110766	0.15676352	0.15420632	0.017461533	0.89525469	0.093020858	0.02024048	0.053262537	0.1807655	-0.027074933	0.82481354	0.030563271	0.063315986	0.4344827	0.43824954	-0.11748423	0.83555608	0.50983064	0.16593753	0.44015987	0.42773779	0.0081868492	0.81356781	0.48825378	0.043253666	0.56075928	0.82763759	-0.13975393	0.62081024	0.84720928	0.22662821	0.66987581	0.90501112	-0.097184523	0.6864224	0.93102577	0.14314626	0.51107649	0.97294035	0.031805523	0.67257739	1.3798695	-0.12410696	0.61777482	1.3787843	0.20054231	0.57870562	1.4240289	0.028295836	0.61674419	1.0041702	-0.20032595	0.43936339	1.0672118	0.2522278	0.8832666	0.93876058	-0.17544759	0.50093713	0.81499355	0.33736273
305	1.216	0.1921894	0.022168818	-0.0054416786	1.0418442	0.042662916	0.070665604	0.12675548	0.15696664	-0.074102467	0.89405254	0.052188277	0.11055993	0.16347298	0.15754671	0.016505845	0.89576752	0.092500015	0.019554139	0.06048654	0.18696654	-0.027271778	0.8252258	0.030710815	0.063102801	0.4452824	0.43698663	-0.11882662	0.84307607	0.51026785	0.16536714	0.45179171	0.42575407	0.0064976781	0.82031594	0.48967556	0.042933312	0.56873197	0.82685125	-0.13914367	0.62767728	0.84842026	0.22744626	0.67716167	0.90468114	-0.096505168	0.693182	0.93183436	0.14370669	0.51848185	0.97288921	0.032146599	0.67964304	1.3800124	-0.12393259	0.62477883	1.378696	0.20082114	0.58556432	1.4239706	0.028530847	0.62266687	1.0044943	-0.19984919	0.44728885	1.0665217	0.25217576	0.88869529	0.93716425	-0.17528026	0.50952271	0.81438612	0.3369848
306	1.22	0.19447967	0.024080788	-0.0059612542	1.0423174	0.042085605	0.070501688	0.13303719	0.16145118	-0.074570294	0.89439579	0.05233444	0.11028853	0.17034094	0.16107533	0.015754142	0.89618195	0.092127209	0.019120712	0.068043716	0.19330536	-0.027560843	0.82549903	0.030813982	0.063083241	0.45623427	0.43568372	-0.12008792	0.85024755	0.51055039	0.16489053	0.46433069	0.42355731	0.0047397599	0.82704796	0.49104951	0.042569211	0.57670269	0.82603553	-0.13864955	0.63428331	0.84955547	0.22834385	0.68438499	0.90443897	-0.09571116	0.69982421	0.93270408	0.14437055	0.52609767	0.97293157	0.032479169	0.68678835	1.3801894	-0.12382627	0.63176895	1.3786764	0.20109447	0.5924593	1.4239443	0.028713184	0.62853487	1.0049195	-0.19938185	0.45521891	1.0658708	0.25211945	0.89400553	0.93553737	-0.17510443	0.51810742	0.81381682	0.33657672
307	1.224	0.1971178	0.026228515	-0.0065346246	1.0426818	0.041605085	0.070403436	0.13972517	0.16605811	-0.074925885	0.89464916	0.052303024	0.11018089	0.17737483	0.16479315	0.015186813	0.89648495	0.091919959	0.018882674	0.075933184	0.19974893	-0.027963699	0.82566691	0.030884886	0.063213741	0.46739476	0.4343544	-0.12125292	0.85707011	0.51073309	0.16456427	0.47735758	0.42115917	0.0030847733	0.8337656	0.49237274	0.042191113	0.58466784	0.82523738	-0.13832235	0.6405985	0.85058546	0.22925318	0.69161171	0.90437156	-0.094718285	0.70636429	0.93362793	0.14512362	0.53359689	0.97308276	0.032726123	0.69397364	1.3804128	-0.12377443	0.63872476	1.3787393	0.20135357	0.59937526	1.4239749	0.028873996	0.63434845	1.0054346	-0.19893204	0.46309175	1.0652668	0.25205183	0.89921184	0.93389149	-0.17493285	0.52668653	0.81328657	0.33612249
308	1.228	0.2001425	0.028596163	-0.0071912553	1.0429804	0.041242875	0.070185388	0.14684522	0.17076063	-0.075237538	0.89494951	0.052109883	0.1101029	0.18460332	0.16868226	0.014774121	0.89672218	0.091861094	0.018728712	0.084159037	0.20625674	-0.028469917	0.82578993	0.030943377	0.063358703	0.478772	0.43299065	-0.12225493	0.86348898	0.51082066	0.1643897	0.49030725	0.41871222	0.0017290788	0.84043124	0.49357557	0.041816096	0.59259846	0.82453453	-0.13812107	0.64665035	0.8514965	0.23011437	0.69888037	0.90450277	-0.093511755	0.71282525	0.93458221	0.14594762	0.54012765	0.97340065	0.033125965	0.70111452	1.3807002	-0.12371372	0.64564035	1.3788881	0.20158989	0.60625331	1.4241086	0.029042476	0.6401072	1.0060296	-0.19849937	0.4709357	1.0647044	0.2519891	0.90432404	0.93223417	-0.17477166	0.53530529	0.81279351	0.33562072
309	1.232	0.20359282	0.0311679	-0.007956462	1.0432391	0.040984342	0.06987081	0.15440391	0.17552393	-0.075548745	0.89533883	0.05188946	0.10998632	0.19206851	0.17270007	0.014483686	0.89698221	0.091905583	0.018567935	0.092725818	0.21278515	-0.029039101	0.82590783	0.031005055	0.063414476	0.49036955	0.4315663	-0.12304479	0.86945075	0.51081567	0.16429311	0.50279673	0.4164202	0.00077086457	0.84697713	0.49455604	0.041444471	0.60044612	0.8239838	-0.13790966	0.65252508	0.85229167	0.23090071	0.70613559	0.90474329	-0.092206851	0.71923174	0.93552755	0.14682813	0.54452838	0.9740774	0.034382834	0.70815822	1.3810545	-0.12359883	0.65252578	1.3791104	0.20179828	0.61304716	1.4243819	0.029219033	0.64580966	1.0066947	-0.19807389	0.4788213	1.064177	0.25195851	0.90934947	0.9305575	-0.17462508	0.54401958	0.81232952	0.33508323
310	1.236	0.20751831	0.033946635	-0.0088463328	1.0434634	0.04078897	0.069549343	0.16237629	0.18031357	-0.075847086	0.89576517	0.051780275	0.10984698	0.19980793	0.17680516	0.014288293	0.89733016	0.091981191	0.018366827	0.10163076	0.21929963	-0.029613194	0.82602796	0.031065461	0.063362862	0.50219811	0.43007227	-0.12364372	0.87494923	0.51073628	0.16414798	0.5147723	0.41440719	0.00018080326	0.85332117	0.49523654	0.041064048	0.60818149	0.82358232	-0.1375536	0.65831175	0.85298506	0.23160658	0.71323503	0.90496137	-0.090992323	0.72559409	0.93642813	0.14775005	0.54630417	0.97531406	0.036936278	0.71511264	1.3814642	-0.12343808	0.65938765	1.3793954	0.20197838	0.61975767	1.4247954	0.029382009	0.65145978	1.0074242	-0.19764736	0.4867916	1.0636922	0.25198118	0.91429287	0.92884979	-0.17449505	0.55286156	0.81189491	0.33452639
311	1.24	0.21197166	0.036956064	-0.0098786519	1.0436491	0.040623385	0.069262527	0.17072072	0.18512575	-0.076098476	0.89614265	0.051819049	0.10973497	0.2078432	0.18097885	0.014166897	0.89775912	0.092011089	0.018137153	0.11085832	0.22577637	-0.030130115	0.82613525	0.031108732	0.063249777	0.51424082	0.42853606	-0.12412196	0.88004565	0.51060534	0.16386902	0.52653154	0.41267172	-0.00016835685	0.85937551	0.49560577	0.040670365	0.61580574	0.823272	-0.13703327	0.66405772	0.85360007	0.23222633	0.72005435	0.90510219	-0.089996494	0.73190585	0.93726982	0.14869002	0.54733915	0.97683329	0.039927483	0.7220047	1.3819162	-0.12326192	0.66621966	1.3797461	0.2021347	0.62641126	1.4253163	0.029515109	0.65706753	1.0082176	-0.19722288	0.49483851	1.0632711	0.25206444	0.91915455	0.92711062	-0.17437955	0.56183316	0.81150942	0.33395914
